<svg width="16" height="25" viewBox="0 0 16 25" fill="none" xmlns="http://www.w3.org/2000/svg">
<path d="M7.99961 24.8002C5.53242 24.8002 3.59961 23.7457 3.59961 22.4002C3.59961 21.3014 4.88437 20.3723 6.79688 20.0879L6.91445 20.8795C5.48086 21.0922 4.39961 21.7463 4.39961 22.4002C4.39961 23.157 5.87793 24.0002 7.99961 24.0002C10.1213 24.0002 11.5996 23.157 11.5996 22.4002C11.5996 21.7463 10.5184 21.0922 9.08437 20.8785L9.20234 20.0869C11.1148 20.3727 12.3996 21.3018 12.3996 22.4002C12.3996 23.7457 10.4668 24.8002 7.99961 24.8002Z" fill="black"/>
<path d="M8 22.8C7.3377 22.8 6.78398 22.3248 6.6832 21.6703C6.25195 18.8699 4.96562 16.3312 2.9623 14.3283L2.34316 13.7092C0.832031 12.198 0 10.1889 0 8.05195V8C0 3.58887 3.58887 0 8 0C12.4111 0 16 3.58887 16 8V8.05195C16 10.1889 15.168 12.198 13.6568 13.7092L13.0377 14.3283C11.0344 16.3316 9.74805 18.8699 9.3168 21.6703C9.21602 22.3248 8.6623 22.8 8 22.8Z" fill="#FFB631"/>
<path fill-rule="evenodd" clip-rule="evenodd" d="M2.40039 7.9999C2.40039 11.088 4.9123 13.5999 8.00039 13.5999C11.0885 13.5999 13.6004 11.088 13.6004 7.9999C13.6004 4.91182 11.0885 2.3999 8.00039 2.3999C4.9123 2.3999 2.40039 4.91182 2.40039 7.9999ZM3.20039 7.9999C3.20039 5.35303 5.35352 3.1999 8.00039 3.1999C10.6473 3.1999 12.8004 5.35303 12.8004 7.9999C12.8004 10.6468 10.6473 12.7999 8.00039 12.7999C5.35352 12.7999 3.20039 10.6468 3.20039 7.9999Z" fill="black"/>
</svg>
