<svg width="13" height="19" viewBox="0 0 13 19" fill="none" xmlns="http://www.w3.org/2000/svg">
<path d="M6.5 18.525C5.96188 18.525 5.51199 18.1389 5.4301 17.6071C5.07971 15.3318 4.03457 13.2691 2.40687 11.6418L1.90382 11.1387C0.676025 9.91091 0 8.27845 0 6.54221V6.5C0 2.91595 2.91595 0 6.5 0C10.084 0 13 2.91595 13 6.5V6.54221C13 8.27845 12.324 9.91091 11.0962 11.1387L10.5931 11.6418C8.96543 13.2695 7.92029 15.3318 7.5699 17.6071C7.48801 18.1389 7.03812 18.525 6.5 18.525Z" fill="#CFCFCF"/>
<circle cx="6.5" cy="6.5" r="2.5" fill="white"/>
</svg>
