<svg width="52" height="56" viewBox="0 0 52 56" fill="none" xmlns="http://www.w3.org/2000/svg">
<path d="M25.9968 55.3487C11.6916 55.3487 0.0527344 43.7094 0.0527344 29.4046C0.0527344 15.3982 11.2093 3.94892 25.1022 3.4754V0L35.6612 7.03905L25.1022 14.0777V10.6381C15.1565 11.1068 7.20972 19.3454 7.20972 29.4046C7.20972 39.7631 15.6379 48.1917 25.9968 48.1917C36.3558 48.1917 44.7839 39.7631 44.7839 29.4046V28.51H51.9409V29.4046C51.9409 43.7094 40.3016 55.3487 25.9968 55.3487Z" fill="#F0BC5E"/>
<path fill-rule="evenodd" clip-rule="evenodd" d="M18.84 15.9854H33.154C34.1408 15.9854 34.9433 16.7878 34.9433 17.7746V19.5638C34.9433 20.5506 34.1408 21.3531 33.154 21.3531V23.4053C33.154 26.1569 31.5434 28.697 29.0522 29.8752C28.8229 29.9835 28.6809 30.1954 28.6809 30.4299C28.6809 30.665 28.8229 30.8773 29.0513 30.9865C31.5434 32.1637 33.154 34.7034 33.154 37.4563V39.2456C34.1408 39.2456 34.9433 40.048 34.9433 41.0348V42.8241C34.9433 43.8109 34.1408 44.6133 33.154 44.6133H18.84C17.8532 44.6133 17.0508 43.8109 17.0508 42.8241V41.0348C17.0508 40.048 17.8532 39.2456 18.84 39.2456V37.4563C18.84 34.7034 20.4502 32.1637 22.9427 30.9852C23.1707 30.8773 23.3131 30.665 23.3131 30.4299C23.3131 30.1962 23.1707 29.9835 22.9427 29.8752C20.4502 28.697 18.84 26.1569 18.84 23.4053V21.3531C17.8532 21.3531 17.0508 20.5506 17.0508 19.5638V17.7746C17.0508 16.7878 17.8532 15.9854 18.84 15.9854ZM18.84 42.8241H33.1558L33.154 41.0348H18.84V42.8241ZM31.3648 23.4053C31.3648 25.4693 30.1561 27.3739 28.2882 28.2576C27.439 28.6577 26.8916 29.51 26.8916 30.4299C26.8916 31.3495 27.439 32.203 28.2882 32.6036C30.1561 33.4869 31.3648 35.3914 31.3648 37.4563V39.2456H20.6293V37.4563C20.6293 35.3914 21.838 33.4869 23.7059 32.6036C24.5546 32.2039 25.1024 31.3503 25.1024 30.4299C25.1024 29.5091 24.5546 28.6577 23.7067 28.2567C21.8371 27.373 20.6293 25.468 20.6293 23.4044V21.3531H31.3648V23.4053ZM18.84 17.7746V19.5638H33.1558L33.154 17.7746H18.84Z" fill="black"/>
<path d="M43.9102 23.6784L45.6382 23.2153L46.1013 24.9434L44.3732 25.4065L43.9102 23.6784Z" fill="black"/>
<path d="M41.8213 19.2374L43.3707 18.3428L44.2653 19.8926L42.7155 20.7868L41.8213 19.2374Z" fill="black"/>
<path d="M38.6484 15.4867L39.9135 14.2217L41.1785 15.4867L39.9135 16.7518L38.6484 15.4867Z" fill="black"/>
<path d="M34.6152 12.6857L35.5094 11.1362L37.0593 12.0304L36.1647 13.5803L34.6152 12.6857Z" fill="black"/>
<path d="M49.5117 23.8139L51.2656 23.4653L51.6142 25.2192L49.8603 25.5678L49.5117 23.8139Z" fill="black"/>
<path d="M47.9697 19.3368L49.6236 18.6519L50.3081 20.3048L48.6542 20.9898L47.9697 19.3368Z" fill="black"/>
<path d="M45.582 15.2408L47.0694 14.2466L48.0632 15.7335L46.5754 16.7278L45.582 15.2408Z" fill="black"/>
<path d="M42.4434 11.6922L43.7084 10.4268L44.9735 11.6922L43.7084 12.9573L42.4434 11.6922Z" fill="black"/>
<path d="M38.6719 8.82285L39.6665 7.33545L41.1531 8.32967L40.1588 9.81707L38.6719 8.82285Z" fill="black"/>
</svg>
